<svg xmlns="http://www.w3.org/2000/svg" viewBox="0 0 128 128">
<path fill="#00599C" d="M63.933 0L5.633 32v64l58.3 32 58.3-32V32z"/>
<path fill="#004482" d="M63.933 0v128l58.3-32V32z"/>
<path fill="#659AD2" d="M63.933 0L5.633 32v64l58.3 32z"/>
<path fill="#fff" d="M64 23.4c-22.4 0-40.6 18.2-40.6 40.6S41.6 104.6 64 104.6c22.4 0 40.6-18.2 40.6-40.6S86.4 23.4 64 23.4zm0 72c-17.3 0-31.4-14.1-31.4-31.4S46.7 32.6 64 32.6c17.3 0 31.4 14.1 31.4 31.4S81.3 95.4 64 95.4z"/>
<path fill="#fff" d="M50 70h28v8H50zM50 50h28v8H50z"/>
</svg>