<svg xmlns="http://www.w3.org/2000/svg" viewBox="0 0 128 128">
<path fill="#0074BD" d="M47.617 98.12s-4.767 2.774 3.397 3.71c9.892 1.13 14.947.968 25.845-1.092 0 0 2.872 1.795 6.873 3.351-24.439 10.47-55.308-.607-36.115-5.969zM44.592 83.241s-5.348 3.959 2.823 4.805c10.567 1.091 18.91 1.18 33.354-1.6 0 0 1.993 2.025 5.132 3.131-29.542 8.64-62.446.68-41.309-6.336zM71.005 61.271c6.025 6.935-1.58 13.17-1.58 13.17s15.289-7.891 8.269-17.777c-6.559-9.197-11.587-13.754 15.635-29.549 0 .001-42.731 10.67-22.324 34.156zM101.254 108.229s3.529 2.91-3.888 5.159c-14.102 4.272-58.706 5.56-71.094.171-4.451-1.938 3.899-4.625 6.526-5.192 2.739-.593 4.303-.485 4.303-.485-4.953-3.487-32.013 6.85-13.743 9.815 49.821 8.076 90.817-3.637 77.896-9.468zM49.912 67.033s-22.686 5.389-8.033 7.348c6.188.828 18.518.64 30.011-.326 9.39-.789 18.813-2.474 18.813-2.474s-3.308 1.419-5.704 3.053c-23.042 6.061-67.544 3.238-54.731-2.958 10.832-5.239 19.644-4.643 19.644-4.643zM91.204 92.896c23.421-12.167 12.591-23.86 5.032-22.285-1.848.385-2.677.72-2.677.72s.688-1.079 2-1.543c14.953-5.255 26.451 15.503-4.823 23.725 0-.002.362-.327.468-.617zM76.491 1.587S89.459 14.563 66.872 34.51c-17.448 15.545-3.977 24.404-.007 34.515-10.181-9.174-17.662-17.251-12.657-24.776 7.366-11.086 27.716-16.436 22.283-42.662z"/>
</svg>