<svg xmlns="http://www.w3.org/2000/svg" viewBox="0 0 128 128">
  <linearGradient id="a" x1="70.252" x2="170.659" y1="1237.476" y2="1151.089" gradientTransform="matrix(.563 0 0 -.568 -29.215 707.817)" gradientUnits="userSpaceOnUse">
    <stop offset="0" stop-color="#5A9FD4"/>
    <stop offset="1" stop-color="#306998"/>
  </linearGradient>
  <path fill="url(#a)" d="M63.391 0c-4.222.02-8.25.38-11.828 1.016-10.45 1.84-12.346 5.7-12.346 12.812v9.377h24.687v3.126H27.954c-7.188 0-13.485 4.312-15.469 12.5-2.273 9.375-2.375 15.24 0 25 1.758 7.396 5.938 12.5 13.125 12.5h8.5V63.36c0-8.074 7.015-15 15.469-15h24.655c6.875 0 12.344-5.688 12.344-12.562V13.828c0-6.687-5.47-11.718-12.344-12.812C70.97.188 67.612-.019 63.39 0zM46.785 8.25c2.563 0 4.655 2.116 4.655 4.72s-2.092 4.687-4.655 4.687c-2.578 0-4.655-2.084-4.655-4.687s2.077-4.72 4.655-4.72z"/>
  <linearGradient id="b" x1="209.474" x2="173.62" y1="1098.811" y2="1149.537" gradientTransform="matrix(.563 0 0 -.568 -29.215 707.817)" gradientUnits="userSpaceOnUse">
    <stop offset="0" stop-color="#FFD43B"/>
    <stop offset="1" stop-color="#FFE873"/>
  </linearGradient>
  <path fill="url(#b)" d="M91.596 26.333V37.63c0 8.312-7.03 15.344-15.344 15.344H51.565c-6.77 0-12.344 5.75-12.344 12.5v22.5c0 6.875 5.813 10.937 12.344 12.5 7.813 1.938 15.312 2.312 24.655 0 6.188-1.5 12.344-4.625 12.344-12.5v-9.376H64.265v-3.125h37.063c7.187 0 9.844-5.062 12.344-12.5 2.563-7.688 2.437-15.062 0-25-1.78-7.188-5.155-12.5-12.344-12.5h-10.73zM81.033 87.97c2.577 0 4.655 2.116 4.655 4.72 0 2.602-2.078 4.688-4.655 4.688-2.563 0-4.655-2.086-4.655-4.688 0-2.604 2.092-4.72 4.655-4.72z"/>
</svg>
